<svg width="360" height="180" viewBox="0 0 60 30" xml:space="preserve" xmlns="http://www.w3.org/2000/svg"><g style="stroke-width:1.19735"><path style="fill:#232334;fill-opacity:1;fill-rule:evenodd;stroke:none;stroke-width:1.19735;stroke-linecap:round;stroke-linejoin:round;stroke-dasharray:none;stroke-opacity:1;paint-order:stroke markers fill;stop-color:#000" d="m18.13.271 8.272.165 2.99 9.73L18.2 9.17 15.534.858Z" transform="translate(-5.762 2.133) scale(.83518)"/><path style="fill:#a2a2c6;fill-opacity:1;fill-rule:evenodd;stroke-width:7.18407;stroke-linecap:round;stroke-linejoin:round;stroke-opacity:.253731;paint-order:stroke markers fill;stop-color:#000" d="m13.88 14.32 5.818 4.484 13.506-2.615-5.842-2.83-10.954.578z" transform="translate(-5.762 2.133) scale(.83518)"/><path style="fill:#c6c6e1;fill-opacity:1;fill-rule:evenodd;stroke-width:7.18407;stroke-linecap:round;stroke-linejoin:round;stroke-opacity:.253731;paint-order:stroke markers fill;stop-color:#000" d="m18.13.271-4.257.2 5.234 1.218a55.949 55.949 0 0 0-.976-1.418Zm8.272.165L24.53 2.262l9.625-.621z" transform="translate(-5.762 2.133) scale(.83518)"/><path style="fill:#8a8acf;fill-opacity:1;fill-rule:evenodd;stroke-width:7.18407;stroke-linecap:round;stroke-linejoin:round;stroke-opacity:.253731;paint-order:stroke markers fill;stop-color:#000" d="m13.873.47.13 6.651 8.208 4.008V7.627l-2.604 1.701.68-2.174-3.215-1.902s2.31-2.762 2.4-2.943c.016-.03-.145-.286-.365-.62zm8.338 4.055-.838.819.838 1.04Z" transform="translate(-5.762 2.133) scale(.83518)"/><path style="fill:#5a5a89;fill-opacity:1;fill-rule:evenodd;stroke-width:7.18407;stroke-linecap:round;stroke-linejoin:round;stroke-opacity:.253731;paint-order:stroke markers fill;stop-color:#000" d="m34.154 1.64-9.625.622-2.318 2.263v1.86l.656.814-.656.428v3.502l11.752-1.574Z" transform="translate(-5.762 2.133) scale(.83518)"/><path style="fill:#9191ca;fill-opacity:1;fill-rule:evenodd;stroke-width:7.18407;stroke-linecap:round;stroke-linejoin:round;stroke-opacity:.253731;paint-order:stroke markers fill;stop-color:#000" d="m16.415 13.223 5.151 3.385v1.245l-5.162-3.555z" transform="translate(-5.762 2.133) scale(.83518)"/><path style="fill:#565681;fill-opacity:1;fill-rule:evenodd;stroke-width:7.18407;stroke-linecap:round;stroke-linejoin:round;stroke-opacity:.253731;paint-order:stroke markers fill;stop-color:#000" d="M21.566 16.608 30.453 15l.011 1.2-8.898 1.653z" transform="translate(-5.762 2.133) scale(.83518)"/><path style="fill:#acacc9;fill-opacity:1;fill-rule:evenodd;stroke-width:7.18407;stroke-linecap:round;stroke-linejoin:round;stroke-opacity:.253731;paint-order:stroke markers fill;stop-color:#000" d="m16.415 13.223 5.151 3.385L30.453 15l-2.765-1.346-8.74-.839Z" transform="translate(-5.762 2.133) scale(.83518)"/><path style="fill:#8a8acf;fill-opacity:1;fill-rule:evenodd;stroke-width:7.18407;stroke-linecap:round;stroke-linejoin:round;stroke-opacity:.253731;paint-order:stroke markers fill;stop-color:#000" d="m13.88 14.32.09 4.37L19.675 24l.023-5.196" transform="translate(-5.762 2.133) scale(.83518)"/><path style="fill:#5a5a89;fill-opacity:1;fill-rule:evenodd;stroke-width:7.18407;stroke-linecap:round;stroke-linejoin:round;stroke-opacity:.253731;paint-order:stroke markers fill;stop-color:#000" d="m19.675 24 .023-5.196 13.506-2.615-.09 4.698z" transform="translate(-5.762 2.133) scale(.83518)"/><path style="fill:#6969a0;fill-opacity:1;fill-rule:evenodd;stroke-width:7.18407;stroke-linecap:round;stroke-linejoin:round;stroke-opacity:.253731;paint-order:stroke markers fill;stop-color:#000" d="m23.287 15.792-.01-4.806-4.355-1.464.029 3.678Z" transform="translate(-5.762 2.133) scale(.83518)"/><path style="fill:#4e4e75;fill-opacity:1;fill-rule:evenodd;stroke-width:7.18407;stroke-linecap:round;stroke-linejoin:round;stroke-opacity:.253731;paint-order:stroke markers fill;stop-color:#000" d="m23.287 15.792-.01-4.806 4.486-.601-.106 4.66z" transform="translate(-5.762 2.133) scale(.83518)"/><path style="fill:#5a5a89;fill-opacity:1;fill-rule:evenodd;stroke:none;stroke-width:1.19735;stroke-linecap:round;stroke-linejoin:round;stroke-dasharray:none;stroke-opacity:1;paint-order:stroke markers fill;stop-color:#000" d="m20.287 7.154 1.11-.814-.197 1.948-1.593 1.04.68-2.174" transform="translate(-5.762 2.133) scale(.83518)"/><path style="fill:#acacc9;fill-opacity:1;fill-rule:evenodd;stroke:none;stroke-width:1.19735;stroke-linecap:round;stroke-linejoin:round;stroke-dasharray:none;stroke-opacity:1;paint-order:stroke markers fill;stop-color:#000" d="m17.072 5.252 3.215 1.902 1.11-.814-3.532-2.04Z" transform="translate(-5.762 2.133) scale(.83518)"/><path style="fill:#5a5a89;fill-opacity:1;fill-rule:evenodd;stroke:none;stroke-width:1.19735;stroke-linecap:round;stroke-linejoin:round;stroke-dasharray:none;stroke-opacity:1;paint-order:stroke markers fill;stop-color:#000" d="M19.423 2.382s.91.788.819.856c-.053.039-.77.902-1.367 1.624l-1.803.39z" transform="translate(-5.762 2.133) scale(.83518)"/><path style="fill:#c6c6e1;fill-opacity:1;fill-rule:evenodd;stroke:none;stroke-width:1.19735;stroke-linecap:round;stroke-linejoin:round;stroke-dasharray:none;stroke-opacity:1;paint-order:stroke markers fill;stop-color:#000" d="m20.244 3.206-1.137-1.517.316.693z" transform="translate(-5.762 2.133) scale(.83518)"/><path style="fill:#4e4e75;fill-opacity:1;fill-rule:evenodd;stroke:none;stroke-width:1.19735;stroke-linecap:round;stroke-linejoin:round;stroke-dasharray:none;stroke-opacity:1;paint-order:stroke markers fill;stop-color:#000" d="M22.21 6.385v1.242l.657-.428z" transform="translate(-5.762 2.133) scale(.83518)"/></g><g style="stroke:#000;stroke-opacity:1"><path style="fill:none;fill-opacity:1;fill-rule:evenodd;stroke:#000;stroke-width:1;stroke-linecap:round;stroke-linejoin:round;stroke-dasharray:none;stroke-opacity:1;paint-order:stroke markers fill;stop-color:#000" d="M1.281 14.89V9.549L5.07 7.5" transform="translate(8.175 1.64)"/><path style="fill:none;fill-opacity:1;fill-rule:evenodd;stroke:#000;stroke-width:1;stroke-linecap:round;stroke-linejoin:round;stroke-dasharray:none;stroke-opacity:1;paint-order:stroke markers fill;stop-color:#000" d="M1.281 11.821c0-.111 3.789-2.049 3.789-2.049m1.485 6.118V8.5l3.789 2.049m0 6.341 2.114-7.39 2.114 7.39m2.791-8.39-2.42 3.925 3.7 3.465m.743-6.341L23.174 7.5m-1.796.971v6.419m11.014 2v-5.341L36.181 9.5m-11.521-1 2.126 6.432h1.994L30.907 8.5m11.559 7.39-4.428-1.111V8.5L42.6 9.645m-4.562 1.151 4.455 1.118" transform="translate(8.175 1.64)"/></g><path style="fill:none;fill-opacity:1;fill-rule:evenodd;stroke-width:6;stroke-linecap:round;stroke-linejoin:round;stroke-opacity:.253731;paint-order:stroke markers fill;stop-color:#000" d="m10.913 4.924-3.046-.816v5.81"/><g style="stroke:#000;stroke-opacity:1"><path style="fill:none;fill-opacity:1;fill-rule:evenodd;stroke:#000;stroke-width:1;stroke-linecap:round;stroke-linejoin:round;stroke-dasharray:none;stroke-opacity:1;paint-order:stroke markers fill;stop-color:#000" d="M27.216 15.954 29.08 22.5m2.283 1 4.186-2.275-4.596-1.159 3.307-3.112m6.939-2-3.904.984V21.5l4.023-1.014m-4.023-1.622 3.928-.99M43.16 23.5v-4.731l3.34-1.815" transform="translate(7.175 3.64)"/></g><g style="stroke:#ffe6e6;stroke-opacity:1"><path style="fill:none;fill-opacity:1;fill-rule:evenodd;stroke:#ffe6e6;stroke-width:1;stroke-linecap:round;stroke-linejoin:round;stroke-dasharray:none;stroke-opacity:1;paint-order:stroke markers fill;stop-color:#000" d="M1.281 14.89V9.549L5.07 7.5" transform="translate(7.719 1.003)"/><path style="fill:none;fill-opacity:1;fill-rule:evenodd;stroke:#ffe6e6;stroke-width:1;stroke-linecap:round;stroke-linejoin:round;stroke-dasharray:none;stroke-opacity:1;paint-order:stroke markers fill;stop-color:#000" d="M1.281 11.821c0-.111 3.789-2.049 3.789-2.049m1.485 6.118V8.5l3.789 2.049m0 6.341 2.114-7.39 2.114 7.39m2.791-8.39-2.42 3.925 3.7 3.465m.743-6.341L23.174 7.5m-1.796.971v6.419m11.014 2v-5.341L36.181 9.5m-11.521-1 2.126 6.432h1.994L30.907 8.5m11.559 7.39-4.428-1.111V8.5L42.6 9.645m-4.562 1.151 4.455 1.118" transform="translate(7.719 1.003)"/></g><g style="stroke:#ffe6e6;stroke-opacity:1"><path style="fill:none;fill-opacity:1;fill-rule:evenodd;stroke:#ffe6e6;stroke-width:1;stroke-linecap:round;stroke-linejoin:round;stroke-dasharray:none;stroke-opacity:1;paint-order:stroke markers fill;stop-color:#000" d="M27.216 15.954 29.08 22.5m2.283 1 4.186-2.275-4.596-1.159 3.307-3.112m6.939-2-3.904.984V21.5l4.023-1.014m-4.023-1.622 3.928-.99M43.16 23.5v-4.731l3.34-1.815" transform="translate(6.719 3.003)"/></g></svg>